<svg id="visual" viewBox="0 0 900 200" width="900" height="200" xmlns="http://www.w3.org/2000/svg" xmlns:xlink="http://www.w3.org/1999/xlink" version="1.1"><rect x="0" y="0" width="900" height="200" fill="#393E46"></rect><path d="M0 82L12.5 86.8C25 91.7 50 101.3 75 102C100 102.7 125 94.3 150 93.3C175 92.3 200 98.7 225 100.3C250 102 275 99 300 95.7C325 92.3 350 88.7 375 94C400 99.3 425 113.7 450 115.8C475 118 500 108 525 106.3C550 104.7 575 111.3 600 110.7C625 110 650 102 675 95.7C700 89.3 725 84.7 750 88.7C775 92.7 800 105.3 825 105.3C850 105.3 875 92.7 887.5 86.3L900 80L900 201L887.5 201C875 201 850 201 825 201C800 201 775 201 750 201C725 201 700 201 675 201C650 201 625 201 600 201C575 201 550 201 525 201C500 201 475 201 450 201C425 201 400 201 375 201C350 201 325 201 300 201C275 201 250 201 225 201C200 201 175 201 150 201C125 201 100 201 75 201C50 201 25 201 12.5 201L0 201Z" fill="#222831" stroke-linecap="round" stroke-linejoin="miter"></path></svg>