<svg id="visual" viewBox="0 0 900 200" width="900" height="200" xmlns="http://www.w3.org/2000/svg" xmlns:xlink="http://www.w3.org/1999/xlink" version="1.1"><rect x="0" y="0" width="900" height="200" fill="#00ADB5"></rect><path d="M0 68L30 64.8C60 61.7 120 55.3 180 56.8C240 58.3 300 67.7 360 75.3C420 83 480 89 540 86.3C600 83.7 660 72.3 720 68.2C780 64 840 67 870 68.5L900 70L900 201L870 201C840 201 780 201 720 201C660 201 600 201 540 201C480 201 420 201 360 201C300 201 240 201 180 201C120 201 60 201 30 201L0 201Z" fill="#00adb5"></path><path d="M0 78L30 80.5C60 83 120 88 180 90.3C240 92.7 300 92.3 360 92.5C420 92.7 480 93.3 540 96.7C600 100 660 106 720 111.3C780 116.7 840 121.3 870 123.7L900 126L900 201L870 201C840 201 780 201 720 201C660 201 600 201 540 201C480 201 420 201 360 201C300 201 240 201 180 201C120 201 60 201 30 201L0 201Z" fill="#77c3c8"></path><path d="M0 106L30 110.3C60 114.7 120 123.3 180 127C240 130.7 300 129.3 360 131.3C420 133.3 480 138.7 540 143.5C600 148.3 660 152.7 720 146.7C780 140.7 840 124.3 870 116.2L900 108L900 201L870 201C840 201 780 201 720 201C660 201 600 201 540 201C480 201 420 201 360 201C300 201 240 201 180 201C120 201 60 201 30 201L0 201Z" fill="#b5d9db"></path><path d="M0 165L30 167C60 169 120 173 180 170.7C240 168.3 300 159.7 360 156C420 152.3 480 153.7 540 156C600 158.3 660 161.7 720 164.2C780 166.7 840 168.3 870 169.2L900 170L900 201L870 201C840 201 780 201 720 201C660 201 600 201 540 201C480 201 420 201 360 201C300 201 240 201 180 201C120 201 60 201 30 201L0 201Z" fill="#eeeeee"></path></svg>