<svg id="visual" viewBox="0 0 900 100" width="900" height="100" xmlns="http://www.w3.org/2000/svg" xmlns:xlink="http://www.w3.org/1999/xlink" version="1.1"><rect x="0" y="0" width="900" height="100" fill="#001220"></rect><path d="M0 78L21.5 74.3C43 70.7 86 63.3 128.8 64.7C171.7 66 214.3 76 257.2 77.2C300 78.3 343 70.7 385.8 66.8C428.7 63 471.3 63 514.2 61.7C557 60.3 600 57.7 642.8 56.2C685.7 54.7 728.3 54.3 771.2 58.3C814 62.3 857 70.7 878.5 74.8L900 79L900 0L878.5 0C857 0 814 0 771.2 0C728.3 0 685.7 0 642.8 0C600 0 557 0 514.2 0C471.3 0 428.7 0 385.8 0C343 0 300 0 257.2 0C214.3 0 171.7 0 128.8 0C86 0 43 0 21.5 0L0 0Z" fill="#ff008b"></path><path d="M0 67L21.5 65.3C43 63.7 86 60.3 128.8 56.3C171.7 52.3 214.3 47.7 257.2 44.7C300 41.7 343 40.3 385.8 42.7C428.7 45 471.3 51 514.2 53.5C557 56 600 55 642.8 51.8C685.7 48.7 728.3 43.3 771.2 41.8C814 40.3 857 42.7 878.5 43.8L900 45L900 0L878.5 0C857 0 814 0 771.2 0C728.3 0 685.7 0 642.8 0C600 0 557 0 514.2 0C471.3 0 428.7 0 385.8 0C343 0 300 0 257.2 0C214.3 0 171.7 0 128.8 0C86 0 43 0 21.5 0L0 0Z" fill="#de0092"></path><path d="M0 27L21.5 29.5C43 32 86 37 128.8 40.3C171.7 43.7 214.3 45.3 257.2 42.7C300 40 343 33 385.8 33.2C428.7 33.3 471.3 40.7 514.2 40C557 39.3 600 30.7 642.8 26.3C685.7 22 728.3 22 771.2 25.7C814 29.3 857 36.7 878.5 40.3L900 44L900 0L878.5 0C857 0 814 0 771.2 0C728.3 0 685.7 0 642.8 0C600 0 557 0 514.2 0C471.3 0 428.7 0 385.8 0C343 0 300 0 257.2 0C214.3 0 171.7 0 128.8 0C86 0 43 0 21.5 0L0 0Z" fill="#ba0096"></path><path d="M0 26L21.5 23.7C43 21.3 86 16.7 128.8 14.8C171.7 13 214.3 14 257.2 14.3C300 14.7 343 14.3 385.8 13.8C428.7 13.3 471.3 12.7 514.2 11.8C557 11 600 10 642.8 11C685.7 12 728.3 15 771.2 15.3C814 15.7 857 13.3 878.5 12.2L900 11L900 0L878.5 0C857 0 814 0 771.2 0C728.3 0 685.7 0 642.8 0C600 0 557 0 514.2 0C471.3 0 428.7 0 385.8 0C343 0 300 0 257.2 0C214.3 0 171.7 0 128.8 0C86 0 43 0 21.5 0L0 0Z" fill="#920097"></path></svg>